<?xml version="1.0" encoding="utf-8"?>
<!-- Generator: Adobe Illustrator 26.0.3, SVG Export Plug-In . SVG Version: 6.00 Build 0)  -->
<svg version="1.1" id="Ebene_1" xmlns="http://www.w3.org/2000/svg" xmlns:xlink="http://www.w3.org/1999/xlink" x="0px" y="0px"
	 viewBox="0 0 101.2 42.4" style="enable-background:new 0 0 101.2 42.4;" xml:space="preserve">
<style type="text/css">
	.st0{fill:#E2002B;}
	.st1{fill:#EE7F00;}
</style>
<path class="st0" d="M26.2,21.2c0,2.7-2.2,4.9-4.9,4.9s-4.9-2.2-4.9-4.9s2.2-4.9,4.9-4.9l0,0C24,16.3,26.2,18.5,26.2,21.2L26.2,21.2
	"/>
<path class="st1" d="M37,8.2l-8.3,8.3c0.9,1.4,1.3,3,1.3,4.6c0,4.8-3.9,8.7-8.7,8.7s-8.7-3.9-8.7-8.7s3.9-8.7,8.7-8.7
	c1.7,0,3.3,0.5,4.7,1.4l8.3-8.3C25.7-1.7,12.8-0.6,5.6,8.1s-6.1,21.5,2.6,28.7s21.5,6.1,28.7-2.6C43.2,26.7,43.2,15.8,37,8.2"/>
<path d="M54.4,30.1h1v3.2h-1c0-0.3-0.1-0.7-0.2-1c-0.1-0.3-0.3-0.6-0.5-0.8c-0.2-0.2-0.5-0.4-0.8-0.5s-0.7-0.2-1-0.2
	c-0.4,0-0.8,0.1-1.2,0.3c-0.3,0.2-0.6,0.5-0.9,0.8c-0.3,0.4-0.4,0.8-0.5,1.2c-0.1,0.5-0.2,1-0.2,1.6c0,0.5,0.1,1,0.2,1.5
	c0.1,0.4,0.3,0.8,0.5,1.2c0.2,0.3,0.5,0.6,0.9,0.8s0.8,0.3,1.2,0.3c0.3,0,0.7-0.1,1-0.2c0.3-0.1,0.6-0.3,0.8-0.6s0.4-0.6,0.5-0.9
	c0.1-0.4,0.2-0.7,0.2-1.1v-0.1H53v-0.8h3.5v0.8h-1.1v3.6h-1v-1.4c-0.1,0.3-0.2,0.5-0.4,0.7s-0.4,0.4-0.7,0.5s-0.5,0.2-0.8,0.3
	s-0.6,0.1-0.8,0.1c-0.4,0-0.8-0.1-1.2-0.2c-0.4-0.1-0.7-0.3-1-0.5s-0.6-0.5-0.8-0.8s-0.4-0.6-0.5-1c-0.2-0.7-0.3-1.4-0.3-2.1
	c0-0.7,0.1-1.4,0.3-2c0.2-0.5,0.4-1,0.8-1.5c0.3-0.4,0.8-0.7,1.3-0.9c0.5-0.2,1.1-0.3,1.6-0.3s1,0.1,1.5,0.3c0.4,0.2,0.8,0.6,1,1
	C54.4,31.4,54.4,30.1,54.4,30.1z"/>
<path d="M61.8,30.1c0.3,0,0.5,0,0.8,0.1c0.3,0,0.6,0.1,0.8,0.2c0.3,0.2,0.6,0.5,0.7,0.8c0.2,0.4,0.3,0.8,0.3,1.2
	c0,0.6-0.1,1.2-0.5,1.7c-0.3,0.4-0.9,0.7-1.4,0.7c0.3,0,0.5,0.1,0.8,0.3c0.1,0.1,0.3,0.3,0.3,0.4c0.1,0.2,0.1,0.3,0.2,0.5l0.2,0.6
	c0.1,0.2,0.1,0.5,0.2,0.7s0.2,0.6,0.2,0.9h1V39h-1.9c0-0.1-0.1-0.3-0.1-0.4c0-0.2-0.1-0.3-0.2-0.5L63,37.5c-0.1-0.2-0.1-0.4-0.2-0.6
	c0-0.1-0.1-0.2-0.1-0.3s-0.1-0.3-0.1-0.4c-0.1-0.2-0.1-0.3-0.2-0.4c-0.1-0.1-0.2-0.3-0.3-0.4c-0.1-0.1-0.3-0.2-0.4-0.2
	c-0.2,0-0.5-0.1-0.7-0.1h-1.3v3.1h1.2V39h-3.6v-0.8h1.3V31h-1.3v-0.8L61.8,30.1z M61.4,34.3c0.4,0,0.8-0.1,1.2-0.3
	c0.2-0.1,0.3-0.2,0.4-0.4c0.1-0.1,0.2-0.3,0.2-0.5c0-0.1,0.1-0.3,0.1-0.4c0-0.1,0-0.2,0-0.2c0-0.3,0-0.5-0.1-0.7
	c-0.1-0.2-0.2-0.5-0.4-0.6c-0.1-0.1-0.3-0.2-0.5-0.2s-0.4-0.1-0.6-0.1h-1.8v3.4C59.9,34.3,61.4,34.3,61.4,34.3z"/>
<path d="M69.7,30.1V31h-1.3v4.9c0,0.3,0,0.7,0.1,1s0.2,0.6,0.4,0.8c0.2,0.2,0.4,0.4,0.7,0.5c0.3,0.1,0.7,0.2,1,0.2s0.6-0.1,0.9-0.2
	c0.3-0.1,0.5-0.3,0.7-0.5c0.1-0.1,0.2-0.3,0.3-0.4c0.1-0.2,0.1-0.3,0.2-0.5s0.1-0.4,0.1-0.6c0-0.2,0-0.5,0-0.8V31h-1.3v-0.8h3.4V31
	h-1.1v4.9c0,0.3,0,0.6-0.1,0.9c-0.1,0.2-0.1,0.5-0.2,0.7s-0.2,0.4-0.4,0.6c-0.1,0.2-0.3,0.3-0.5,0.5c-0.1,0.1-0.3,0.2-0.5,0.3
	s-0.4,0.1-0.6,0.2c-0.2,0.1-0.4,0.1-0.6,0.1s-0.3,0-0.5,0c-0.3,0-0.6,0-0.9-0.1s-0.6-0.2-0.8-0.3c-0.2-0.2-0.5-0.3-0.7-0.5
	s-0.3-0.4-0.4-0.6c-0.1-0.3-0.2-0.5-0.2-0.8c-0.1-0.3-0.1-0.7-0.1-1V31h-1.1v-0.8L69.7,30.1z"/>
<path d="M80,30.1c0.5,0,0.9,0.1,1.3,0.2c0.3,0.1,0.6,0.4,0.8,0.6c0.2,0.3,0.3,0.6,0.4,0.9c0.1,0.3,0.1,0.6,0.1,0.9
	c0,0.4-0.1,0.8-0.2,1.2c-0.2,0.3-0.4,0.6-0.7,0.9c-0.2,0.2-0.4,0.3-0.7,0.4c-0.3,0.1-0.6,0.1-0.9,0.1h-2v2.9h1.5V39h-3.9v-0.8H77V31
	h-1.3v-0.8L80,30.1z M79.8,34.6c0.3,0,0.6,0,0.8-0.1c0.2-0.1,0.4-0.2,0.5-0.4s0.2-0.4,0.3-0.6c0.1-0.2,0.1-0.5,0.1-0.7
	s0-0.4-0.1-0.6c0-0.2-0.1-0.4-0.3-0.6c-0.2-0.2-0.4-0.3-0.6-0.4c-0.3-0.1-0.7-0.2-1-0.2h-1.4v3.6H79.8z"/>
<path d="M88.1,30.1c0.5,0,0.9,0.1,1.3,0.2c0.3,0.1,0.6,0.4,0.8,0.6c0.2,0.3,0.3,0.6,0.4,0.9c0.1,0.3,0.1,0.6,0.1,0.9
	c0,0.4-0.1,0.8-0.3,1.2c-0.2,0.3-0.4,0.6-0.7,0.9c-0.2,0.2-0.4,0.3-0.7,0.4c-0.3,0.1-0.6,0.1-0.9,0.1h-2v2.9h1.5V39h-3.9v-0.8H85V31
	h-1.3v-0.8L88.1,30.1z M87.8,34.6c0.3,0,0.5,0,0.8-0.1c0.2-0.1,0.4-0.2,0.5-0.4s0.2-0.4,0.3-0.6c0.1-0.2,0.1-0.5,0.1-0.7
	s0-0.4-0.1-0.6c0-0.2-0.1-0.4-0.3-0.6c-0.2-0.2-0.4-0.3-0.6-0.4c-0.3-0.1-0.7-0.2-1-0.2H86v3.6H87.8z"/>
<path d="M99,30.1v2.7h-1V31h-3.8v3.2h1.9v-1.4H97v3.5h-0.9v-1.4h-1.9v3.3H98v-2h1V39h-7.2v-0.8h1.3V31h-1.3v-0.8L99,30.1z"/>
<path d="M89.7,16.6v1h1.5v8.7h-1.5v1H94v-1h-1.5v-4.7l3.9,4.7h-1.3v1H99v-1h-1l-4-4.7l3.9-4h0.7v-1H95v1h1.3l-3.8,4v-4H94v-1
	C94,16.6,89.7,16.6,89.7,16.6z M84.4,16.6v1h1.5v8.7h-1.5v1h4.2v-1h-1.5v-8.7h1.5v-1L84.4,16.6z M72.7,16.6v1h1.5v8.7h-1.5v1h4.1v-1
	h-1.5v-8.6l4.8,9.5h1.8v-9.7h1.4v-1h-4.1v1h1.5v8.3L76,16.5h-3.3V16.6z M67.4,16.6v1h1.5v8.7h-1.5v1h4.2v-1h-1.5v-8.7h1.5v-1
	L67.4,16.6z M58.2,16.6v1h1.5v8.7h-1.5v1h8v-3.5H65v2.4h-4v-8.6h1.8v-1L58.2,16.6z M48.1,16.6v1h1.5v8.7h-1.5v1h4.2v-1h-1.4v-4.7
	l3.9,4.7h-1.3v1h3.9v-1h-1l-4-4.7l3.9-4H57v-1h-3.6v1h1.3l-3.8,4v-4h1.4v-1C52.3,16.6,48.1,16.6,48.1,16.6z"/>
<path d="M80.7,2.5c0.4,0,0.7-0.3,0.7-0.7s-0.3-0.7-0.7-0.7C80.3,1,80,1.3,80,1.7S80.3,2.5,80.7,2.5"/>
<path d="M84.3,2.5c0.4,0,0.7-0.3,0.7-0.7s-0.3-0.7-0.7-0.7c-0.4,0-0.7,0.3-0.7,0.7C83.6,2.1,83.9,2.5,84.3,2.5"/>
<path d="M88.3,3.1v1h1.5v8.7h-1.5v1h4.1v-1H91V4.2l4.8,9.6h1.8V4.1H99v-1h-4.1v1h1.5v8.3l-4.7-9.3C91.7,3.1,88.3,3.1,88.3,3.1z
	 M81.5,12.8c-0.5-0.2-0.9-0.5-1.2-0.9c-0.3-0.4-0.6-0.8-0.7-1.3c-0.2-0.6-0.3-1.3-0.3-2c0-0.6,0.1-1.2,0.2-1.8
	c0.1-0.5,0.3-1,0.7-1.5c0.3-0.4,0.7-0.8,1.1-1c0.5-0.2,1-0.4,1.6-0.3c0.5,0,1,0.1,1.5,0.3c0.4,0.2,0.8,0.5,1.1,0.9
	c0.3,0.4,0.5,0.9,0.7,1.4c0.2,0.6,0.2,1.2,0.2,1.9c0,0.6-0.1,1.3-0.2,1.9c-0.1,0.5-0.4,1-0.7,1.4c-0.3,0.4-0.7,0.7-1.1,0.9
	S83.5,13,83,13C82.3,13,81.9,12.9,81.5,12.8 M87.4,6.7c-0.1-0.5-0.3-1.1-0.6-1.5c-0.4-0.6-1-1.2-1.6-1.6C84.5,3.2,83.6,3,82.8,3
	c-0.7,0-1.4,0.1-2,0.3s-1.1,0.6-1.6,1c-0.5,0.5-0.8,1.1-1,1.8c-0.3,0.8-0.4,1.7-0.4,2.5s0.1,1.5,0.4,2.2c0.2,0.6,0.6,1.2,1,1.7
	s1,0.8,1.6,1.1c0.7,0.3,1.4,0.4,2.1,0.4c0.8,0,1.6-0.2,2.3-0.5c0.7-0.3,1.3-0.9,1.6-1.5c0.3-0.5,0.5-1,0.6-1.5
	c0.2-0.6,0.3-1.3,0.2-1.9C87.7,7.9,87.6,7.3,87.4,6.7 M66.5,3.1v1H68v8.7h-1.5v1h4.2v-1h-1.5V8.9h5.1v3.9h-1.5v1h4.3v-1h-1.5V4.1
	h1.5v-1h-4.3v1h1.5v3.8h-5.1V4.1h1.5v-1H66.5z M64.2,4.7c-0.2-0.5-0.6-1-1.1-1.3c-0.6-0.3-1.3-0.4-2-0.4S59.6,3.1,59,3.4
	s-1.1,0.7-1.5,1.2s-0.7,1.1-0.9,1.8s-0.3,1.4-0.3,2.1s0.1,1.3,0.2,2c0.1,0.6,0.4,1.2,0.8,1.8c0.4,0.5,0.9,1,1.5,1.3
	c0.7,0.3,1.5,0.5,2.3,0.5c0.6,0,1.1-0.1,1.7-0.2c0.5-0.1,0.9-0.4,1.3-0.7c0.4-0.3,0.7-0.7,0.9-1.2c0.2-0.5,0.3-1.1,0.4-1.6H64
	c0,0.7-0.3,1.5-0.8,2s-1.3,0.8-2,0.7c-1,0.1-1.9-0.4-2.5-1.2c-0.6-1-0.9-2.2-0.9-3.4c-0.1-1.1,0.2-2.3,0.9-3.2
	c0.6-0.8,1.6-1.2,2.6-1.2c0.8,0,1.5,0.3,2,0.8c0.5,0.6,0.8,1.3,0.8,2.1h1.2V3.1h-1L64.2,4.7L64.2,4.7z M53.6,4.1
	c-0.2-0.4-0.6-0.7-1-0.9C52.2,3.1,51.7,3,51.2,3s-0.9,0.1-1.3,0.2c-0.4,0.1-0.7,0.3-1,0.6c-0.3,0.2-0.5,0.5-0.7,0.9
	C48.1,5.1,48,5.5,48,5.9c0,0.6,0.2,1.2,0.6,1.7c0.2,0.3,0.5,0.5,0.9,0.6c0.4,0.2,0.9,0.4,1.4,0.6s1.1,0.4,1.4,0.6
	c0.3,0.1,0.5,0.3,0.8,0.5c0.2,0.1,0.3,0.3,0.4,0.5c0.1,0.2,0.1,0.5,0.1,0.7c0,0.5-0.2,1-0.5,1.4c-0.4,0.4-0.9,0.6-1.4,0.5
	c-0.7,0.1-1.3-0.2-1.8-0.7c-0.4-0.5-0.7-1.2-0.7-1.9v-0.1c0-0.1,0-0.1,0-0.1h-1.1v3.6h1.1v-1.4c0.2,0.5,0.5,0.9,0.9,1.1
	c0.5,0.3,1.1,0.4,1.7,0.4c0.4,0,0.8-0.1,1.2-0.2c0.4-0.1,0.7-0.3,1-0.6s0.6-0.6,0.7-1c0.2-0.4,0.3-0.9,0.3-1.3c0-0.3,0-0.7-0.2-1
	c-0.1-0.3-0.2-0.5-0.4-0.8c-0.2-0.2-0.4-0.4-0.6-0.6c-0.2-0.1-0.4-0.3-0.7-0.4l-1.4-0.5l-1.2-0.4c-0.7-0.2-1.2-0.8-1.2-1.6
	c0-0.5,0.2-1,0.6-1.3c0.4-0.3,0.9-0.5,1.4-0.5c0.6-0.1,1.3,0.2,1.7,0.6c0.4,0.6,0.6,1.3,0.6,2h1.1V3.1h-1.2v1H53.6z"/>
</svg>
